# Blender v2.78 (sub 0) OBJ File: 'SM_1M_InsetCorner.blend'
# www.blender.org
mtllib SM_1M_ArchCorner.mtl
o SM_1M_ArchCorner_Cube.057
v -9.999931 -0.000029 -0.000008
v -11.729259 -0.000030 17.558121
v -16.850775 -0.000028 34.441505
v -25.167667 -0.000024 50.001316
v -36.360321 -0.000018 63.639606
v -49.998619 -0.000010 74.832268
v -65.558426 -0.000001 83.149155
v -82.441803 0.000009 88.270668
v -99.999939 0.000020 90.000000
v -1.921409 -0.000036 19.509026
v 0.000066 -0.000036 -0.000008
v -7.611984 -0.000034 38.268337
v -16.852976 -0.000029 55.557018
v -29.289257 -0.000023 70.710670
v -44.442917 -0.000014 83.146957
v -61.731590 -0.000004 92.387947
v -80.490898 0.000007 98.078522
v -99.999931 0.000019 99.999992
v 0.000066 9.999979 0.000008
v 0.000067 11.729310 17.558138
v 0.000064 16.850826 34.441521
v 0.000069 25.167713 50.001335
v 0.000071 36.360367 63.639622
v 0.000079 49.998672 74.832291
v 0.000083 65.558472 83.149178
v 0.000088 82.441849 88.270691
v 0.000093 99.999985 90.000023
v 0.000043 1.921462 19.509039
v 0.000047 7.612035 38.268353
v 0.000046 16.853029 55.557037
v 0.000054 29.289299 70.710686
v 0.000058 44.442970 83.146980
v 0.000063 61.731644 92.387970
v 0.000068 80.490952 98.078545
v 0.000075 99.999969 100.000015
vt 0.7416 0.7135
vt 0.7675 0.7394
vt 0.7121 0.7849
vt 0.6917 0.7545
vt 0.6488 0.8187
vt 0.6348 0.7849
vt 0.5802 0.8395
vt 0.5730 0.8036
vt 0.5088 0.8465
vt 0.5088 0.8099
vt 0.4374 0.8395
vt 0.4446 0.8036
vt 0.3688 0.8187
vt 0.3828 0.7849
vt 0.3056 0.7849
vt 0.3259 0.7545
vt 0.2501 0.7394
vt 0.2760 0.7135
vt 0.3259 0.5587
vt 0.3056 0.5891
vt 0.2501 0.5436
vt 0.2760 0.5177
vt 0.3828 0.5891
vt 0.3688 0.6229
vt 0.4446 0.6078
vt 0.4374 0.6437
vt 0.5088 0.6142
vt 0.5088 0.6508
vt 0.5730 0.6078
vt 0.5802 0.6437
vt 0.6348 0.5891
vt 0.6488 0.6229
vt 0.6917 0.5587
vt 0.7121 0.5891
vt 0.7416 0.5177
vt 0.7675 0.5436
vt 0.0260 0.2329
vt 0.0904 0.2285
vt 0.0904 0.2891
vt 0.0260 0.2847
vt 0.1536 0.2152
vt 0.1536 0.3024
vt 0.2144 0.1937
vt 0.2144 0.3239
vt 0.2721 0.1647
vt 0.2721 0.3529
vt 0.3261 0.1295
vt 0.3261 0.3881
vt 0.3766 0.0892
vt 0.3766 0.4284
vt 0.4241 0.0455
vt 0.4241 0.4721
vt 0.4700 0.0001
vt 0.4700 0.5175
vt 0.5066 0.0001
vt 0.5575 0.0506
vt 0.5575 0.4670
vt 0.5066 0.5175
vt 0.6103 0.0991
vt 0.6103 0.4185
vt 0.6664 0.1438
vt 0.6664 0.3738
vt 0.7264 0.1830
vt 0.7264 0.3346
vt 0.7905 0.2152
vt 0.7905 0.3024
vt 0.8581 0.2391
vt 0.8581 0.2785
vt 0.9283 0.2538
vt 0.9283 0.2638
vt 0.9999 0.2588
vt 0.0001 0.2588
vn -0.0000 -1.0000 -0.0000
vn 1.0000 -0.0000 0.0000
vn -0.7054 0.7054 -0.0695
vn -0.6995 0.6995 -0.1459
vn -0.6758 0.6758 -0.2944
vn -0.6324 0.6324 -0.4474
vn -0.5636 0.5636 -0.6038
vn -0.4621 0.4621 -0.7569
vn -0.3219 0.3219 -0.8904
vn -0.1457 0.1457 -0.9785
vn -0.0976 0.0976 -0.9904
vn 0.0975 -0.0975 0.9904
vn 0.1457 -0.1457 0.9785
vn 0.3219 -0.3219 0.8904
vn 0.4621 -0.4621 0.7569
vn 0.5636 -0.5636 0.6038
vn 0.6324 -0.6324 0.4474
vn 0.6758 -0.6758 0.2944
vn 0.6995 -0.6995 0.1459
vn 0.7054 -0.7054 0.0695
vn 0.0000 0.0000 -1.0000
vn -0.7071 0.7071 0.0000
usemtl None
s 1
f 1/1/1 11/2/1 10/3/1 2/4/1
f 2/4/1 10/3/1 12/5/1 3/6/1
f 3/6/1 12/5/1 13/7/1 4/8/1
f 4/8/1 13/7/1 14/9/1 5/10/1
f 5/10/1 14/9/1 15/11/1 6/12/1
f 6/12/1 15/11/1 16/13/1 7/14/1
f 7/14/1 16/13/1 17/15/1 8/16/1
f 8/16/1 17/15/1 18/17/1 9/18/1
f 20/19/2 28/20/2 11/21/2 19/22/2
f 21/23/2 29/24/2 28/20/2 20/19/2
f 22/25/2 30/26/2 29/24/2 21/23/2
f 23/27/2 31/28/2 30/26/2 22/25/2
f 24/29/2 32/30/2 31/28/2 23/27/2
f 25/31/2 33/32/2 32/30/2 24/29/2
f 26/33/2 34/34/2 33/32/2 25/31/2
f 27/35/2 35/36/2 34/34/2 26/33/2
f 1/37/3 2/38/4 20/39/4 19/40/3
f 3/41/5 21/42/5 20/39/4 2/38/4
f 4/43/6 22/44/6 21/42/5 3/41/5
f 5/45/7 23/46/7 22/44/6 4/43/6
f 6/47/8 24/48/8 23/46/7 5/45/7
f 7/49/9 25/50/9 24/48/8 6/47/8
f 8/51/10 26/52/10 25/50/9 7/49/9
f 9/53/11 27/54/11 26/52/10 8/51/10
f 18/55/12 17/56/13 34/57/13 35/58/12
f 17/56/13 16/59/14 33/60/14 34/57/13
f 16/59/14 15/61/15 32/62/15 33/60/14
f 15/61/15 14/63/16 31/64/16 32/62/15
f 14/63/16 13/65/17 30/66/17 31/64/16
f 13/65/17 12/67/18 29/68/18 30/66/17
f 12/67/18 10/69/19 28/70/19 29/68/18
f 10/69/19 11/71/20 28/70/19
f 11/72/21 1/37/21 19/40/21
f 18/55/22 35/58/22 27/54/22 9/53/22
