# Blender v2.78 (sub 0) OBJ File: 'SM_1M_InsetCorner.blend'
# www.blender.org
mtllib SM_1M_PyramidCorner.mtl
o SM_1M_PyramidCorner_Cube.011
v 0.000000 0.000000 100.000000
v -100.000000 100.000000 0.000000
v -100.000000 0.000000 0.000000
v 0.000000 100.000000 0.000000
v 0.000000 0.000000 0.000000
vt 0.5856 0.8284
vt 0.0002 0.4144
vt 0.5856 0.4144
vt 0.9998 0.4144
vt 0.9998 0.8284
vt 0.5859 0.8284
vt 0.5859 0.4144
vt 0.1953 0.9664
vt 0.0002 0.4141
vt 0.4141 0.0002
vt 0.4141 0.4141
vt 0.8281 0.4141
vn 0.0000 0.7071 0.7071
vn 0.0000 0.0000 -1.0000
vn -0.7071 0.0000 0.7071
vn 1.0000 0.0000 0.0000
vn 0.0000 -1.0000 0.0000
usemtl None
s off
f 2/1/1 1/2/1 4/3/1
f 3/4/2 2/5/2 4/6/2 5/7/2
f 3/8/3 1/2/3 2/1/3
f 4/9/4 1/10/4 5/11/4
f 5/11/5 1/10/5 3/12/5
