# Blender v2.78 (sub 0) OBJ File: 'SM_1M_InsetCorner.blend'
# www.blender.org
mtllib SM_1M_RoundedCorner.mtl
o SM_1M_RoundedCorner_Cube.052
v -74.999336 0.000017 74.832275
v -68.180199 0.000016 63.639618
v -55.000000 0.000009 0.000000
v -100.000000 0.000029 100.000000
v -50.960739 0.000020 19.509041
v -50.000000 0.000018 0.000015
v -100.000000 0.000019 90.000015
v -91.220932 0.000019 88.270676
v -82.779251 0.000018 83.149170
v -62.583870 0.000015 50.001328
v -58.425419 0.000013 34.441513
v -55.864662 0.000011 17.558136
v -90.245491 0.000029 98.078522
v -80.865837 0.000028 92.387955
v -72.221489 0.000027 83.146973
v -64.644661 0.000026 70.710678
v -58.426517 0.000024 55.557022
v -53.806026 0.000022 38.268356
v 0.000008 100.000015 90.000015
v 0.000008 91.220947 88.270676
v 0.000009 82.779259 83.149155
v 0.000009 74.999352 74.832260
v 0.000004 68.180206 63.639603
v 0.000004 62.583878 50.001328
v 0.000004 58.425438 34.441513
v 0.000004 55.864674 17.558136
v 0.000004 55.000008 0.000000
v 0.000018 100.000015 100.000000
v 0.000018 90.245499 98.078537
v 0.000018 80.865845 92.387939
v 0.000013 72.221504 83.146957
v 0.000014 64.644684 70.710678
v 0.000014 58.426529 55.557022
v 0.000014 53.806038 38.268356
v 0.000014 50.960743 19.509041
v 0.000014 50.000008 0.000015
v -64.502945 64.502960 88.270676
v -58.533775 58.533787 83.149185
v -53.032539 53.032558 74.832291
v -44.253475 44.253494 50.001343
v -41.313011 41.313026 34.441513
v -39.502285 39.502300 17.558136
v -38.890877 38.890884 0.000000
v -70.710670 70.710709 100.000031
v -63.813190 63.813229 98.078537
v -51.068298 51.068329 83.146973
v -41.313778 41.313812 55.557022
v -38.046600 38.046627 38.268356
v -35.355335 35.355358 0.000023
v -70.710686 70.710701 90.000015
v -48.210674 48.210697 63.639618
v -57.180775 57.180809 92.387970
v -45.710674 45.710709 70.710693
v -36.034679 36.034706 19.509056
v -34.908741 84.277176 88.270676
v -22.358435 53.978069 34.441513
v -21.378479 51.612236 17.558136
v -34.535439 83.375984 98.078537
v -30.946001 74.710312 92.387970
v -24.738430 59.723907 70.710693
v -22.358850 53.979080 55.557022
v -20.590664 49.710304 38.268356
v -19.501822 47.081600 19.509041
v -19.134161 46.193993 0.000015
v -38.268341 92.387978 90.000015
v -31.678251 76.478073 83.149185
v -28.701002 69.290375 74.832291
v -26.091427 62.990303 63.639618
v -23.949804 57.819969 50.001343
v -21.047588 50.813389 0.000000
v -38.268326 92.387985 100.000000
v -27.637955 66.723984 83.146973
v -76.478065 31.678263 83.149200
v -69.290352 28.701023 74.832291
v -62.990284 26.091448 63.639633
v -83.375969 34.535484 98.078522
v -47.081585 19.501850 19.509041
v -92.387970 38.268356 90.000000
v -84.277161 34.908752 88.270676
v -57.819958 23.949823 50.001343
v -53.978054 22.358458 34.441513
v -51.612228 21.378498 17.558136
v -50.813381 21.047598 -0.000008
v -92.387955 38.268368 99.999985
v -74.710289 30.946041 92.387970
v -66.723953 27.637997 83.146973
v -59.723885 24.738472 70.710709
v -53.979057 22.358883 55.557022
v -49.710285 20.590696 38.268356
v -46.193977 19.134190 0.000015
v -83.146980 55.557041 90.000000
v -62.359673 41.667416 74.832291
v -52.036591 34.769749 50.001343
v -48.578964 32.459442 34.441513
v -45.730843 30.556372 -0.000008
v -75.036392 50.137733 98.078506
v -41.573483 27.778530 0.000015
v -75.847443 50.679653 88.270660
v -68.828438 45.989708 83.149185
v -56.689758 37.878902 63.639618
v -46.449783 31.036762 17.558136
v -83.146965 55.557049 99.999985
v -67.237480 44.926674 92.387970
v -60.049969 40.124138 83.146973
v -53.750072 35.914680 70.710709
v -48.579865 32.460056 55.557022
v -44.738075 29.893049 38.268356
v -42.372311 28.312292 19.509041
v -73.558250 14.631660 74.832291
v -66.870132 13.301313 63.639633
v -57.302795 11.398249 34.441513
v -54.791248 10.898670 17.558136
v -70.833771 14.089743 83.146973
v -49.039265 9.754533 0.000015
v -98.078545 19.509045 90.000015
v -89.468155 17.796335 88.270676
v -81.188675 16.149445 83.149200
v -61.381332 12.209522 50.001343
v -53.943199 10.729977 0.000000
v -98.078529 19.509058 100.000000
v -88.511452 17.606049 98.078522
v -79.312027 15.776165 92.387970
v -63.402546 12.611575 70.710709
v -57.303871 11.398472 55.557022
v -52.772160 10.497056 38.268356
v -49.981544 9.941965 19.509041
v -45.989693 68.828461 83.149185
v -41.667397 62.359692 74.832291
v -32.459427 48.578979 34.441513
v -31.036743 46.449787 17.558136
v -55.557014 83.146988 100.000000
v -50.137703 75.036415 98.078537
v -35.914646 53.750103 70.710693
v -28.312263 42.372326 19.509041
v -27.778503 41.573498 0.000015
v -55.557026 83.146980 90.000015
v -50.679634 75.847458 88.270676
v -37.878887 56.689781 63.639618
v -34.769733 52.036602 50.001343
v -30.556366 45.730843 0.000000
v -44.926647 67.237511 92.387970
v -40.124104 60.050003 83.146973
v -32.460022 48.579899 55.557022
v -29.893021 44.738098 38.268356
v -19.509033 98.078552 90.000015
v -17.796322 89.468178 88.270676
v -16.149435 81.188698 83.149185
v -10.898651 54.791252 17.558136
v -10.729969 53.943211 0.000000
v -19.509016 98.078560 100.000000
v -15.776129 79.312042 92.387970
v -11.398438 57.303886 55.557022
v -10.497024 52.772175 38.268356
v -9.941938 49.981560 19.509041
v -9.754504 49.039280 0.000015
v -14.631642 73.558273 74.832291
v -13.301292 66.870155 63.639618
v -12.209501 61.381351 50.001343
v -11.398229 57.302811 34.441513
v -17.606005 88.511475 98.078537
v -14.089704 70.833794 83.146973
v -12.611535 63.402565 70.710693
vt 0.1071 0.0604
vt 0.1040 0.0171
vt 0.1888 0.0167
vt 0.1864 0.0607
vt 0.1100 0.1095
vt 0.1832 0.1109
vt 0.1119 0.1675
vt 0.1783 0.1705
vt 0.1110 0.2350
vt 0.1708 0.2401
vt 0.1059 0.3111
vt 0.1595 0.3182
vt 0.0953 0.3938
vt 0.1440 0.4024
vt 0.0198 0.0295
vt 0.0302 0.0714
vt 0.6224 0.2536
vt 0.5636 0.2001
vt 0.5917 0.1648
vt 0.6554 0.2242
vt 0.5870 0.2871
vt 0.5326 0.2401
vt 0.5482 0.3277
vt 0.4976 0.2876
vt 0.5068 0.3774
vt 0.4595 0.3442
vt 0.4649 0.4367
vt 0.4202 0.4098
vt 0.4244 0.5053
vt 0.3818 0.4834
vt 0.3869 0.5812
vt 0.3457 0.5627
vt 0.3524 0.6613
vt 0.3121 0.6441
vt 0.0799 0.4800
vt 0.1250 0.4897
vt 0.0612 0.5668
vt 0.1042 0.5765
vt 0.4226 0.1174
vt 0.4403 0.0758
vt 0.5188 0.1152
vt 0.4960 0.1543
vt 0.4024 0.1650
vt 0.4703 0.1988
vt 0.3785 0.2216
vt 0.4405 0.2517
vt 0.3510 0.2878
vt 0.4073 0.3139
vt 0.3212 0.3626
vt 0.3721 0.3848
vt 0.2903 0.4439
vt 0.3370 0.4627
vt 0.2598 0.5286
vt 0.3033 0.5450
vt 0.2304 0.6132
vt 0.2716 0.6281
vt 0.3455 0.0895
vt 0.3582 0.0464
vt 0.3309 0.1389
vt 0.3131 0.1977
vt 0.2921 0.2665
vt 0.2681 0.3440
vt 0.2422 0.4275
vt 0.2153 0.5140
vt 0.1889 0.5994
vt 0.2740 0.0266
vt 0.2663 0.0705
vt 0.2573 0.1208
vt 0.2459 0.1807
vt 0.2316 0.2506
vt 0.2139 0.3291
vt 0.1932 0.4136
vt 0.1703 0.5009
vt 0.1468 0.5873
vt 0.0353 0.4719
vt 0.0182 0.5579
vt 0.0476 0.3877
vt 0.0534 0.3077
vt 0.0536 0.2349
vt 0.0487 0.1715
vt 0.0404 0.1176
vt 0.0080 0.9404
vt 0.0995 0.9404
vt 0.0995 0.9870
vt 0.0080 0.9870
vt 0.7398 0.9870
vt 0.6483 0.9870
vt 0.6483 0.9404
vt 0.7398 0.9404
vt 0.4654 0.9870
vt 0.4654 0.9404
vt 0.5569 0.9404
vt 0.5569 0.9870
vt 0.3739 0.9870
vt 0.3739 0.9404
vt 0.1910 0.9870
vt 0.1910 0.9404
vt 0.2824 0.9404
vt 0.2824 0.9870
vt 0.3926 0.8477
vt 0.3537 0.8796
vt 0.3407 0.8602
vt 0.3761 0.8312
vt 0.0685 0.8796
vt 0.0815 0.8602
vt 0.1218 0.8817
vt 0.1129 0.9033
vt 0.2612 0.9179
vt 0.2566 0.8950
vt 0.3004 0.8817
vt 0.3093 0.9033
vt 0.2111 0.9228
vt 0.2111 0.8995
vt 0.1656 0.8950
vt 0.1610 0.9179
vt 0.0461 0.8312
vt 0.0296 0.8477
vt 0.9467 0.5049
vt 0.8976 0.5001
vt 0.9078 0.4212
vt 0.9555 0.4270
vt 0.9418 0.5808
vt 0.8900 0.5782
vt 0.9420 0.6523
vt 0.8861 0.6529
vt 0.9470 0.7175
vt 0.8860 0.7217
vt 0.9550 0.7745
vt 0.8892 0.7826
vt 0.6027 0.4290
vt 0.6293 0.3553
vt 0.6741 0.3707
vt 0.6497 0.4459
vt 0.5739 0.5014
vt 0.6235 0.5212
vt 0.5431 0.5692
vt 0.5960 0.5929
vt 0.5113 0.6302
vt 0.5684 0.6586
vt 0.4804 0.6832
vt 0.5422 0.7164
vt 0.4520 0.7282
vt 0.5187 0.7658
vt 0.4268 0.7661
vt 0.4984 0.8074
vt 0.9652 0.8230
vt 0.8938 0.8349
vt 0.9764 0.8644
vt 0.8986 0.8793
vt 0.9876 0.9020
vt 0.9034 0.9184
vt 0.7974 0.4850
vt 0.8127 0.4062
vt 0.8601 0.4144
vt 0.8476 0.4935
vt 0.7825 0.5646
vt 0.8366 0.5729
vt 0.7691 0.6418
vt 0.8282 0.6495
vt 0.7579 0.7134
vt 0.8227 0.7204
vt 0.7489 0.7772
vt 0.8198 0.7835
vt 0.7418 0.8316
vt 0.8185 0.8375
vt 0.7363 0.8775
vt 0.8180 0.8831
vt 0.7316 0.9175
vt 0.8178 0.9229
vt 0.7474 0.4742
vt 0.7658 0.3962
vt 0.7284 0.5532
vt 0.7100 0.6297
vt 0.6930 0.7007
vt 0.6780 0.7637
vt 0.6654 0.8176
vt 0.6549 0.8630
vt 0.6458 0.9025
vt 0.7196 0.3844
vt 0.6980 0.4611
vt 0.6752 0.5386
vt 0.6520 0.6133
vt 0.6294 0.6823
vt 0.6086 0.7434
vt 0.5905 0.7956
vt 0.5751 0.8396
vt 0.4803 0.8440
vt 0.5616 0.8781
vt 0.3634 0.7166
vt 0.4039 0.7997
vt 0.3358 0.7452
vt 0.3930 0.6841
vt 0.4252 0.6452
vt 0.4594 0.5984
vt 0.4939 0.5431
vt 0.5269 0.4801
vt 0.5571 0.4110
vt 0.5848 0.3386
vt 0.8465 0.0401
vt 0.8370 0.0851
vt 0.7971 0.0726
vt 0.8022 0.0262
vt 0.8871 0.0712
vt 0.8735 0.1131
vt 0.9225 0.1185
vt 0.9054 0.1556
vt 0.9513 0.1800
vt 0.9314 0.2110
vt 0.9725 0.2535
vt 0.9504 0.2771
vt 0.9852 0.3360
vt 0.9618 0.3514
vt 0.9889 0.4244
vt 0.9651 0.4310
vt 0.9835 0.5154
vt 0.9603 0.5129
vt 0.9174 0.3492
vt 0.9130 0.3953
vt 0.8683 0.3820
vt 0.8723 0.3405
vt 0.9045 0.2996
vt 0.8606 0.2959
vt 0.8747 0.2487
vt 0.8338 0.2500
vt 0.8291 0.1982
vt 0.7928 0.2046
vt 0.7697 0.1502
vt 0.7393 0.1614
vt 0.6985 0.1065
vt 0.6752 0.1221
vt 0.6184 0.0688
vt 0.6031 0.0882
vt 0.5324 0.0386
vt 0.5258 0.0609
vn 0.0687 -0.3452 0.9360
vn 0.0377 -0.1896 0.9811
vn 0.0740 -0.1786 0.9811
vn 0.1347 -0.3252 0.9360
vn 0.1220 -0.6132 0.7805
vn 0.2392 -0.5776 0.7805
vn 0.1549 -0.7787 0.6080
vn 0.3038 -0.7335 0.6080
vn 0.1739 -0.8742 0.4534
vn 0.3411 -0.8235 0.4534
vn 0.1848 -0.9290 0.3208
vn 0.3625 -0.8751 0.3208
vn 0.1909 -0.9599 0.2051
vn 0.3745 -0.9042 0.2051
vn 0.0190 -0.1932 0.9810
vn 0.0346 -0.3518 0.9354
vn 0.3518 -0.0346 0.9354
vn 0.3452 -0.0687 0.9360
vn 0.1896 -0.0377 0.9811
vn 0.1932 -0.0190 0.9810
vn 0.6240 -0.0615 0.7790
vn 0.6132 -0.1220 0.7805
vn 0.7915 -0.0780 0.6061
vn 0.7787 -0.1549 0.6080
vn 0.8879 -0.0875 0.4516
vn 0.8742 -0.1739 0.4534
vn 0.9431 -0.0929 0.3194
vn 0.9290 -0.1848 0.3208
vn 0.9742 -0.0960 0.2041
vn 0.9599 -0.1909 0.2051
vn 0.9902 -0.0975 0.0995
vn 0.9759 -0.1941 0.1000
vn 0.9940 -0.0979 0.0490
vn 0.9796 -0.1949 0.0492
vn 0.1941 -0.9759 0.1000
vn 0.3808 -0.9192 0.1000
vn 0.1949 -0.9796 0.0492
vn 0.3822 -0.9228 0.0492
vn 0.2927 -0.1955 0.9360
vn 0.1607 -0.1074 0.9811
vn 0.1786 -0.0740 0.9811
vn 0.3252 -0.1347 0.9360
vn 0.5198 -0.3473 0.7805
vn 0.5776 -0.2392 0.7805
vn 0.6601 -0.4411 0.6080
vn 0.7335 -0.3038 0.6080
vn 0.7411 -0.4952 0.4534
vn 0.8235 -0.3411 0.4534
vn 0.7875 -0.5262 0.3208
vn 0.8751 -0.3625 0.3208
vn 0.8138 -0.5438 0.2051
vn 0.9042 -0.3745 0.2051
vn 0.8273 -0.5528 0.1000
vn 0.9192 -0.3808 0.1000
vn 0.8305 -0.5549 0.0492
vn 0.9228 -0.3822 0.0492
vn 0.2489 -0.2489 0.9360
vn 0.1367 -0.1367 0.9811
vn 0.4421 -0.4421 0.7805
vn 0.5614 -0.5614 0.6080
vn 0.6303 -0.6303 0.4534
vn 0.6697 -0.6697 0.3208
vn 0.6921 -0.6921 0.2051
vn 0.7036 -0.7036 0.1000
vn 0.7063 -0.7063 0.0492
vn 0.1074 -0.1607 0.9811
vn 0.1955 -0.2927 0.9360
vn 0.3473 -0.5198 0.7805
vn 0.4411 -0.6601 0.6080
vn 0.4952 -0.7411 0.4534
vn 0.5262 -0.7875 0.3208
vn 0.5438 -0.8138 0.2051
vn 0.5528 -0.8273 0.1000
vn 0.5549 -0.8305 0.0492
vn 0.0975 -0.9902 0.0995
vn 0.0979 -0.9940 0.0489
vn 0.0960 -0.9742 0.2041
vn 0.0929 -0.9431 0.3194
vn 0.0875 -0.8879 0.4516
vn 0.0780 -0.7915 0.6061
vn 0.0615 -0.6240 0.7790
vn -0.0980 0.9952 -0.0000
vn -0.1951 0.9808 -0.0000
vn -0.9952 0.0980 0.0000
vn -0.9808 0.1951 0.0000
vn -0.8315 0.5556 0.0000
vn -0.9239 0.3827 0.0000
vn -0.7071 0.7071 0.0000
vn -0.3827 0.9239 -0.0000
vn -0.5556 0.8315 0.0000
vn 0.0000 -0.0000 -1.0000
vn -0.9902 0.0975 -0.0995
vn -0.9759 0.1941 -0.1000
vn -0.9796 0.1949 -0.0492
vn -0.9940 0.0979 -0.0489
vn -0.9742 0.0960 -0.2041
vn -0.9599 0.1909 -0.2051
vn -0.9431 0.0929 -0.3194
vn -0.9290 0.1848 -0.3208
vn -0.8879 0.0875 -0.4516
vn -0.8742 0.1739 -0.4534
vn -0.7915 0.0780 -0.6061
vn -0.7787 0.1549 -0.6080
vn -0.1941 0.9759 -0.1000
vn -0.1949 0.9796 -0.0492
vn -0.3822 0.9228 -0.0492
vn -0.3808 0.9192 -0.1000
vn -0.1909 0.9599 -0.2051
vn -0.3745 0.9042 -0.2051
vn -0.1848 0.9290 -0.3208
vn -0.3625 0.8751 -0.3208
vn -0.1739 0.8742 -0.4534
vn -0.3411 0.8235 -0.4534
vn -0.1549 0.7787 -0.6080
vn -0.3038 0.7335 -0.6080
vn -0.1220 0.6132 -0.7805
vn -0.2392 0.5776 -0.7805
vn -0.0687 0.3452 -0.9360
vn -0.1347 0.3252 -0.9360
vn -0.6240 0.0615 -0.7790
vn -0.6132 0.1220 -0.7805
vn -0.3518 0.0346 -0.9354
vn -0.3452 0.0687 -0.9360
vn -0.1932 0.0190 -0.9810
vn -0.1896 0.0377 -0.9811
vn -0.8273 0.5528 -0.1000
vn -0.8305 0.5549 -0.0492
vn -0.9228 0.3822 -0.0492
vn -0.9192 0.3808 -0.1000
vn -0.8138 0.5438 -0.2051
vn -0.9042 0.3745 -0.2051
vn -0.7875 0.5262 -0.3208
vn -0.8751 0.3625 -0.3208
vn -0.7411 0.4952 -0.4534
vn -0.8235 0.3411 -0.4534
vn -0.6601 0.4411 -0.6080
vn -0.7335 0.3038 -0.6080
vn -0.5198 0.3473 -0.7805
vn -0.5776 0.2392 -0.7805
vn -0.2927 0.1955 -0.9360
vn -0.3252 0.1347 -0.9360
vn -0.1607 0.1074 -0.9811
vn -0.1786 0.0740 -0.9811
vn -0.7036 0.7036 -0.1000
vn -0.7063 0.7063 -0.0492
vn -0.6921 0.6921 -0.2051
vn -0.6697 0.6697 -0.3208
vn -0.6303 0.6303 -0.4534
vn -0.5614 0.5614 -0.6080
vn -0.4421 0.4421 -0.7805
vn -0.2489 0.2489 -0.9360
vn -0.1367 0.1367 -0.9811
vn -0.5549 0.8305 -0.0492
vn -0.5528 0.8273 -0.1000
vn -0.5438 0.8138 -0.2051
vn -0.5262 0.7875 -0.3208
vn -0.4952 0.7411 -0.4534
vn -0.4411 0.6601 -0.6080
vn -0.3473 0.5198 -0.7805
vn -0.1955 0.2927 -0.9360
vn -0.0740 0.1786 -0.9811
vn -0.1074 0.1607 -0.9811
vn -0.0346 0.3518 -0.9354
vn -0.0377 0.1896 -0.9811
vn -0.0190 0.1932 -0.9810
vn -0.0615 0.6240 -0.7790
vn -0.0780 0.7915 -0.6061
vn -0.0875 0.8879 -0.4516
vn -0.0929 0.9431 -0.3194
vn -0.0960 0.9742 -0.2041
vn -0.0975 0.9902 -0.0995
vn -0.0979 0.9940 -0.0489
vn 1.0000 0.0000 -0.0000
vn 0.0000 -1.0000 0.0000
usemtl None
s 1
f 160/1/1 150/2/2 71/3/3 58/4/4
f 151/5/5 160/1/1 58/4/4 59/6/6
f 161/7/7 151/5/5 59/6/6 72/8/8
f 162/9/9 161/7/7 72/8/8 60/10/10
f 152/11/11 162/9/9 60/10/10 61/12/12
f 153/13/13 152/11/11 61/12/12 62/14/14
f 28/15/15 150/2/2 160/1/1 29/16/16
f 13/17/17 121/18/18 120/19/19 4/20/20
f 14/21/21 122/22/22 121/18/18 13/17/17
f 15/23/23 113/24/24 122/22/22 14/21/21
f 16/25/25 123/26/26 113/24/24 15/23/23
f 17/27/27 124/28/28 123/26/26 16/25/25
f 18/29/29 125/30/30 124/28/28 17/27/27
f 5/31/31 126/32/32 125/30/30 18/29/29
f 6/33/33 114/34/34 126/32/32 5/31/31
f 154/35/35 153/13/13 62/14/14 63/36/36
f 155/37/37 154/35/35 63/36/36 64/38/38
f 96/39/39 102/40/40 84/41/41 76/42/42
f 103/43/43 96/39/39 76/42/42 85/44/44
f 104/45/45 103/43/43 85/44/44 86/46/46
f 105/47/47 104/45/45 86/46/46 87/48/48
f 106/49/49 105/47/47 87/48/48 88/50/50
f 107/51/51 106/49/49 88/50/50 89/52/52
f 108/53/53 107/51/51 89/52/52 77/54/54
f 97/55/55 108/53/53 77/54/54 90/56/56
f 45/57/57 44/58/58 102/40/40 96/39/39
f 52/59/59 45/57/57 96/39/39 103/43/43
f 46/60/60 52/59/59 103/43/43 104/45/45
f 53/61/61 46/60/60 104/45/45 105/47/47
f 47/62/62 53/61/61 105/47/47 106/49/49
f 48/63/63 47/62/62 106/49/49 107/51/51
f 54/64/64 48/63/63 107/51/51 108/53/53
f 49/65/65 54/64/64 108/53/53 97/55/55
f 76/42/42 84/41/41 120/19/19 121/18/18
f 85/44/44 76/42/42 121/18/18 122/22/22
f 86/46/46 85/44/44 122/22/22 113/24/24
f 87/48/48 86/46/46 113/24/24 123/26/26
f 88/50/50 87/48/48 123/26/26 124/28/28
f 89/52/52 88/50/50 124/28/28 125/30/30
f 77/54/54 89/52/52 125/30/30 126/32/32
f 90/56/56 77/54/54 126/32/32 114/34/34
f 58/4/4 71/3/3 131/66/66 132/67/67
f 59/6/6 58/4/4 132/67/67 141/68/68
f 72/8/8 59/6/6 141/68/68 142/69/69
f 60/10/10 72/8/8 142/69/69 133/70/70
f 61/12/12 60/10/10 133/70/70 143/71/71
f 62/14/14 61/12/12 143/71/71 144/72/72
f 63/36/36 62/14/14 144/72/72 134/73/73
f 64/38/38 63/36/36 134/73/73 135/74/74
f 35/75/75 154/35/35 155/37/37 36/76/76
f 34/77/77 153/13/13 154/35/35 35/75/75
f 33/78/78 152/11/11 153/13/13 34/77/77
f 32/79/79 162/9/9 152/11/11 33/78/78
f 31/80/80 161/7/7 162/9/9 32/79/79
f 30/81/81 151/5/5 161/7/7 31/80/80
f 29/16/16 160/1/1 151/5/5 30/81/81
f 132/67/67 131/66/66 44/58/58 45/57/57
f 141/68/68 132/67/67 45/57/57 52/59/59
f 142/69/69 141/68/68 52/59/59 46/60/60
f 133/70/70 142/69/69 46/60/60 53/61/61
f 143/71/71 133/70/70 53/61/61 47/62/62
f 144/72/72 143/71/71 47/62/62 48/63/63
f 134/73/73 144/72/72 48/63/63 54/64/64
f 135/74/74 134/73/73 54/64/64 49/65/65
s 2
f 19/82/82 145/83/83 150/84/83 28/85/82
f 4/86/84 120/87/85 115/88/85 7/89/84
f 102/90/86 91/91/86 78/92/87 84/93/87
f 84/93/87 78/92/87 115/88/85 120/87/85
f 44/94/88 50/95/88 91/91/86 102/90/86
f 71/96/89 65/97/89 136/98/90 131/99/90
f 150/84/83 145/83/83 65/97/89 71/96/89
f 131/99/90 136/98/90 50/95/88 44/94/88
s 3
f 3/100/91 119/101/91 114/102/91 6/103/91
f 149/104/91 155/105/91 64/106/91 70/107/91
f 95/108/91 97/109/91 90/110/91 83/111/91
f 43/112/91 49/113/91 97/109/91 95/108/91
f 83/111/91 90/110/91 114/102/91 119/101/91
f 70/107/91 64/106/91 135/114/91 140/115/91
f 36/116/91 155/105/91 149/104/91 27/117/91
f 140/115/91 135/114/91 49/113/91 43/112/91
s 4
f 12/118/92 112/119/93 119/120/94 3/121/95
f 11/122/96 111/123/97 112/119/93 12/118/92
f 10/124/98 118/125/99 111/123/97 11/122/96
f 2/126/100 110/127/101 118/125/99 10/124/98
f 1/128/102 109/129/103 110/127/101 2/126/100
f 148/130/104 149/131/105 70/132/106 57/133/107
f 159/134/108 148/130/104 57/133/107 56/135/109
f 158/136/110 159/134/108 56/135/109 69/137/111
f 157/138/112 158/136/110 69/137/111 68/139/113
f 156/140/114 157/138/112 68/139/113 67/141/115
f 147/142/116 156/140/114 67/141/115 66/143/117
f 146/144/118 147/142/116 66/143/117 55/145/119
f 9/146/120 117/147/121 109/129/103 1/128/102
f 8/148/122 116/149/123 117/147/121 9/146/120
f 7/150/124 115/151/125 116/149/123 8/148/122
f 101/152/126 95/153/127 83/154/128 82/155/129
f 94/156/130 101/152/126 82/155/129 81/157/131
f 93/158/132 94/156/130 81/157/131 80/159/133
f 100/160/134 93/158/132 80/159/133 75/161/135
f 92/162/136 100/160/134 75/161/135 74/163/137
f 99/164/138 92/162/136 74/163/137 73/165/139
f 98/166/140 99/164/138 73/165/139 79/167/141
f 91/168/142 98/166/140 79/167/141 78/169/143
f 42/170/144 43/171/145 95/153/127 101/152/126
f 41/172/146 42/170/144 101/152/126 94/156/130
f 40/173/147 41/172/146 94/156/130 93/158/132
f 51/174/148 40/173/147 93/158/132 100/160/134
f 39/175/149 51/174/148 100/160/134 92/162/136
f 82/155/129 83/154/128 119/120/94 112/119/93
f 81/157/131 82/155/129 112/119/93 111/123/97
f 80/159/133 81/157/131 111/123/97 118/125/99
f 75/161/135 80/159/133 118/125/99 110/127/101
f 74/163/137 75/161/135 110/127/101 109/129/103
f 73/165/139 74/163/137 109/129/103 117/147/121
f 79/167/141 73/165/139 117/147/121 116/149/123
f 78/169/143 79/167/141 116/149/123 115/151/125
f 38/176/150 39/175/149 92/162/136 99/164/138
f 37/177/151 38/176/150 99/164/138 98/166/140
f 50/178/152 37/177/151 98/166/140 91/168/142
f 57/133/107 70/132/106 140/179/153 130/180/154
f 56/135/109 57/133/107 130/180/154 129/181/155
f 69/137/111 56/135/109 129/181/155 139/182/156
f 68/139/113 69/137/111 139/182/156 138/183/157
f 67/141/115 68/139/113 138/183/157 128/184/158
f 66/143/117 67/141/115 128/184/158 127/185/159
f 55/145/119 66/143/117 127/185/159 137/186/160
f 65/187/161 55/145/119 137/186/160 136/188/162
f 20/189/163 146/144/118 145/190/164 19/191/165
f 21/192/166 147/142/116 146/144/118 20/189/163
f 22/193/167 156/140/114 147/142/116 21/192/166
f 23/194/168 157/138/112 156/140/114 22/193/167
f 24/195/169 158/136/110 157/138/112 23/194/168
f 25/196/170 159/134/108 158/136/110 24/195/169
f 26/197/171 148/130/104 159/134/108 25/196/170
f 27/198/172 149/131/105 148/130/104 26/197/171
f 145/190/164 146/144/118 55/145/119 65/187/161
f 130/180/154 140/179/153 43/171/145 42/170/144
f 129/181/155 130/180/154 42/170/144 41/172/146
f 139/182/156 129/181/155 41/172/146 40/173/147
f 138/183/157 139/182/156 40/173/147 51/174/148
f 128/184/158 138/183/157 51/174/148 39/175/149
f 127/185/159 128/184/158 39/175/149 38/176/150
f 137/186/160 127/185/159 38/176/150 37/177/151
f 136/188/162 137/186/160 37/177/151 50/178/152
s 5
f 29/199/173 20/200/173 19/201/173 28/202/173
f 30/203/173 21/204/173 20/200/173 29/199/173
f 31/205/173 22/206/173 21/204/173 30/203/173
f 32/207/173 23/208/173 22/206/173 31/205/173
f 33/209/173 24/210/173 23/208/173 32/207/173
f 34/211/173 25/212/173 24/210/173 33/209/173
f 35/213/173 26/214/173 25/212/173 34/211/173
f 36/215/173 27/216/173 26/214/173 35/213/173
s 6
f 13/217/174 4/218/174 7/219/174 8/220/174
f 14/221/174 13/217/174 8/220/174 9/222/174
f 15/223/174 14/221/174 9/222/174 1/224/174
f 16/225/174 15/223/174 1/224/174 2/226/174
f 17/227/174 16/225/174 2/226/174 10/228/174
f 18/229/174 17/227/174 10/228/174 11/230/174
f 5/231/174 18/229/174 11/230/174 12/232/174
f 6/233/174 5/231/174 12/232/174 3/234/174
