# Blender v2.78 (sub 0) OBJ File: 'SM_1M_InsetCorner.blend'
# www.blender.org
mtllib SM_1M_Pyramid.mtl
o SM_1M_Pyramid_Cube.006
v 0.000000 0.000000 0.000000
v -50.000000 50.000000 100.000000
v -100.000000 0.000000 0.000000
v 0.000000 100.000000 0.000000
v -100.000000 100.000000 0.000000
vt 0.0587 0.5017
vt 0.5579 0.5017
vt 0.2251 0.8738
vt 0.6133 0.9978
vt 0.5583 0.4999
vt 0.0591 0.4999
vt 0.3919 0.1278
vt 0.0037 0.0038
vt 0.9662 0.0038
vt 0.9662 0.4113
vt 0.5586 0.4113
vt 0.5586 0.0038
vn 0.0000 -0.8944 0.4472
vn -0.8944 0.0000 0.4472
vn 0.0000 0.8944 0.4472
vn 0.8944 0.0000 0.4472
vn 0.0000 0.0000 -1.0000
usemtl None
s off
f 1/1/1 2/2/1 3/3/1
f 3/3/2 2/2/2 5/4/2
f 5/5/3 2/6/3 4/7/3
f 4/7/4 2/6/4 1/8/4
f 3/9/5 5/10/5 4/11/5 1/12/5
