# Blender v2.78 (sub 0) OBJ File: 'SM_1M_InsetCorner.blend'
# www.blender.org
mtllib SM_1M_InsetCylinderCorner.mtl
o SM_1M_InsetCylinderCorner_Cube.004
v -100.000008 0.000000 0.000000
v -98.078529 19.509029 -0.000019
v -98.078529 19.509029 99.999977
v -100.000008 0.000000 100.000000
v -92.387955 38.268345 -0.000019
v -92.387955 38.268345 99.999977
v -83.146957 55.557022 -0.000019
v -83.146957 55.557022 99.999977
v -70.710678 70.710686 -0.000019
v -70.710678 70.710686 99.999977
v -55.557018 83.146973 -0.000019
v -55.557018 83.146973 99.999977
v -38.268341 92.387962 -0.000019
v -38.268341 92.387962 99.999977
v -19.509033 98.078537 -0.000019
v -19.509033 98.078537 99.999977
v 0.000000 100.000008 0.000000
v 0.000000 100.000008 100.000000
v -110.000000 0.000000 0.000000
v -107.886375 21.459934 -0.000019
v -107.886375 21.459934 99.999977
v -110.000008 0.000011 99.999977
v -101.626747 42.095181 -0.000019
v -101.626747 42.095181 99.999977
v -91.461655 61.112728 -0.000019
v -91.461655 61.112728 99.999977
v -77.781746 77.781754 -0.000019
v -77.781746 77.781754 99.999977
v -61.112717 91.461670 -0.000019
v -61.112717 91.461670 99.999977
v -42.095177 101.626755 -0.000019
v -42.095177 101.626755 99.999977
v -21.459938 107.886375 -0.000019
v -21.459938 107.886375 99.999977
v 0.000000 109.999985 0.000000
v 0.000000 109.999985 100.000000
vt 1.2063 0.3735
vt 1.2870 0.3491
vt 1.3034 0.3888
vt 1.2146 0.4157
vt 0.4398 0.9183
vt 0.5238 0.9100
vt 0.5322 0.9522
vt 0.4398 0.9613
vt 1.0384 0.3735
vt 1.1223 0.3818
vt 1.1223 0.4248
vt 1.0300 0.4157
vt 0.6045 0.8855
vt 0.6788 0.8458
vt 0.7027 0.8815
vt 0.6209 0.9253
vt 0.2009 0.8458
vt 0.2752 0.8855
vt 0.2588 0.9253
vt 0.1770 0.8815
vt 0.8833 0.3093
vt 0.9577 0.3491
vt 0.9413 0.3888
vt 0.8594 0.3451
vt 1.3613 0.3093
vt 1.3852 0.3451
vt 0.3559 0.9100
vt 0.3475 0.9522
vt 0.8757 0.5960
vt 0.8757 0.6803
vt 0.4456 0.6803
vt 0.4456 0.5960
vt 0.0072 0.0057
vt 0.4374 0.0057
vt 0.4374 0.0985
vt 0.0072 0.0985
vt 0.4374 0.1912
vt 0.0072 0.1912
vt 0.4374 0.2840
vt 0.0072 0.2840
vt 0.4374 0.3768
vt 0.0072 0.3768
vt 0.4374 0.4695
vt 0.0072 0.4695
vt 0.4374 0.5623
vt 0.0072 0.5623
vt 0.4374 0.6551
vt 0.0072 0.6551
vt 0.4374 0.7478
vt 0.0072 0.7478
vt 0.8182 0.2558
vt 0.7877 0.2862
vt 1.4265 0.2558
vt 1.4569 0.2862
vt 0.7440 0.7923
vt 0.7744 0.8227
vt 0.1357 0.7923
vt 0.1052 0.8227
vt 0.8795 0.7902
vt 0.4493 0.7902
vt 0.4493 0.7472
vt 0.8795 0.7472
vt 0.4493 0.6898
vt 0.8795 0.6898
vt 0.8795 0.7329
vt 0.4493 0.7329
vt 0.8757 0.5117
vt 0.4456 0.5117
vt 0.8757 0.4274
vt 0.4456 0.4274
vt 0.8757 0.3430
vt 0.4456 0.3430
vt 0.8757 0.2587
vt 0.4456 0.2587
vt 0.8757 0.1744
vt 0.4456 0.1744
vt 0.8757 0.0901
vt 0.4456 0.0901
vt 0.8757 0.0057
vt 0.4456 0.0057
vn 0.0000 0.0000 -1.0000
vn 0.0000 0.0000 1.0000
vn 0.9808 -0.1951 0.0000
vn 0.9952 -0.0980 0.0000
vn -0.9952 0.0980 -0.0000
vn -0.9808 0.1951 -0.0000
vn -0.9239 0.3827 0.0000
vn -0.8315 0.5556 0.0000
vn -0.7071 0.7071 0.0000
vn -0.5556 0.8315 0.0000
vn -0.3827 0.9239 0.0000
vn -0.1951 0.9808 0.0000
vn -0.0980 0.9952 0.0000
vn 1.0000 0.0000 0.0000
vn -0.0000 -1.0000 0.0000
vn 0.9239 -0.3827 0.0000
vn 0.8315 -0.5556 0.0000
vn 0.7071 -0.7071 0.0000
vn 0.5556 -0.8315 0.0000
vn 0.3827 -0.9239 0.0000
vn 0.1951 -0.9808 0.0000
vn 0.0980 -0.9952 0.0000
usemtl None
s 1
f 7/1/1 5/2/1 23/3/1 25/4/1
f 10/5/2 12/6/2 30/7/2 28/8/2
f 11/9/1 9/10/1 27/11/1 29/12/1
f 14/13/2 16/14/2 34/15/2 32/16/2
f 3/17/2 6/18/2 24/19/2 21/20/2
f 15/21/1 13/22/1 31/23/1 33/24/1
f 5/2/1 2/25/1 20/26/1 23/3/1
f 8/27/2 10/5/2 28/8/2 26/28/2
f 3/29/3 4/30/4 1/31/4 2/32/3
f 19/33/5 22/34/5 21/35/6 20/36/6
f 20/36/6 21/35/6 24/37/7 23/38/7
f 23/38/7 24/37/7 26/39/8 25/40/8
f 25/40/8 26/39/8 28/41/9 27/42/9
f 27/42/9 28/41/9 30/43/10 29/44/10
f 29/44/10 30/43/10 32/45/11 31/46/11
f 31/46/11 32/45/11 34/47/12 33/48/12
f 33/48/12 34/47/12 36/49/13 35/50/13
f 17/51/1 15/21/1 33/24/1 35/52/1
f 2/25/1 1/53/1 19/54/1 20/26/1
f 6/18/2 8/27/2 26/28/2 24/19/2
f 16/14/2 18/55/2 36/56/2 34/15/2
f 4/57/2 3/17/2 21/20/2 22/58/2
f 13/22/1 11/9/1 29/12/1 31/23/1
f 18/59/14 17/60/14 35/61/14 36/62/14
f 1/63/15 4/64/15 22/65/15 19/66/15
f 12/6/2 14/13/2 32/16/2 30/7/2
f 9/10/1 7/1/1 25/4/1 27/11/1
f 6/67/16 3/29/3 2/32/3 5/68/16
f 8/69/17 6/67/16 5/68/16 7/70/17
f 10/71/18 8/69/17 7/70/17 9/72/18
f 12/73/19 10/71/18 9/72/18 11/74/19
f 14/75/20 12/73/19 11/74/19 13/76/20
f 16/77/21 14/75/20 13/76/20 15/78/21
f 18/79/22 16/77/21 15/78/21 17/80/22
