# Blender v2.78 (sub 0) OBJ File: 'SM_1M_InsetCorner.blend'
# www.blender.org
mtllib SM_1M_ArchCornerRounded.mtl
o SM_1M_ArchCornerRounded_Cube.064
v -9.999979 -0.000040 -0.000008
v -11.729306 -0.000039 17.558121
v -16.850822 -0.000037 34.441505
v -25.167715 -0.000034 50.001316
v -36.360371 -0.000031 63.639606
v -49.998665 -0.000029 74.832268
v -65.558472 -0.000026 83.149155
v -82.441849 -0.000023 88.270668
v -99.999985 -0.000020 90.000000
v -1.921457 -0.000040 19.509026
v 0.000018 -0.000042 -0.000008
v -7.612032 -0.000038 38.268337
v -16.853024 -0.000035 55.557018
v -29.289305 -0.000032 70.710670
v -44.442963 -0.000029 83.146957
v -61.731636 -0.000025 92.387947
v -80.490944 -0.000022 98.078522
v -99.999977 -0.000019 99.999992
v 0.000013 9.999973 0.000007
v 0.000014 11.729308 17.558136
v 0.000009 16.850826 34.441521
v 0.000010 25.167713 50.001335
v 0.000005 36.360371 63.639622
v 0.000008 49.998676 74.832275
v 0.000004 65.558479 83.149162
v 0.000001 82.441856 88.270683
v -0.000003 99.999985 90.000008
v -0.000006 1.921458 19.509039
v -0.000005 7.612035 38.268353
v -0.000009 16.853033 55.557037
v -0.000007 29.289305 70.710686
v -0.000011 44.442974 83.146973
v -0.000015 61.731647 92.387955
v -0.000018 80.490959 98.078529
v -0.000021 99.999977 99.999992
v -98.078506 19.509014 90.000000
v -92.387932 38.268326 90.000000
v -83.146950 55.557007 90.000000
v -70.710663 70.710655 90.000000
v -55.557007 83.146950 90.000000
v -38.268337 92.387939 90.000000
v -19.509020 98.078514 90.000008
v -19.509075 98.078499 99.999992
v -38.268383 92.387924 99.999992
v -55.557053 83.146942 99.999992
v -70.710701 70.710655 99.999992
v -83.146980 55.556999 99.999992
v -92.387947 38.268322 99.999992
v -98.078522 19.509007 99.999992
vt 0.0715 0.9169
vt 0.0394 0.8847
vt 0.1083 0.8282
vt 0.1335 0.8660
vt 0.1869 0.7862
vt 0.2043 0.8282
vt 0.2721 0.7603
vt 0.2810 0.8049
vt 0.3608 0.7516
vt 0.3608 0.7970
vt 0.4495 0.7603
vt 0.4406 0.8049
vt 0.5348 0.7862
vt 0.5174 0.8282
vt 0.6134 0.8282
vt 0.5881 0.8660
vt 0.6822 0.8847
vt 0.6501 0.9169
vt 0.5795 0.9468
vt 0.6047 0.9090
vt 0.6736 0.9655
vt 0.6415 0.9977
vt 0.5088 0.9090
vt 0.5262 0.8670
vt 0.4320 0.8857
vt 0.4409 0.8411
vt 0.3522 0.8779
vt 0.3522 0.8324
vt 0.2724 0.8857
vt 0.2635 0.8411
vt 0.1956 0.9090
vt 0.1783 0.8670
vt 0.1249 0.9468
vt 0.0997 0.9090
vt 0.0629 0.9977
vt 0.0308 0.9655
vt 0.7395 0.7032
vt 0.7188 0.6258
vt 0.7928 0.6114
vt 0.8026 0.6910
vt 0.6876 0.5519
vt 0.7940 0.5312
vt 0.6469 0.4828
vt 0.8058 0.4519
vt 0.5979 0.4193
vt 0.8274 0.3746
vt 0.5421 0.3617
vt 0.8576 0.3003
vt 0.4810 0.3098
vt 0.8947 0.2292
vt 0.4165 0.2622
vt 0.9367 0.1609
vt 0.3502 0.2170
vt 0.9812 0.0942
vt 0.0037 0.6452
vt 0.0599 0.5761
vt 0.5748 0.5254
vt 0.6435 0.5822
vt 0.1135 0.5049
vt 0.5084 0.4660
vt 0.1620 0.4301
vt 0.4463 0.4021
vt 0.2031 0.3511
vt 0.3905 0.3326
vt 0.2351 0.2679
vt 0.3429 0.2573
vt 0.2564 0.1814
vt 0.3051 0.1766
vt 0.2661 0.0928
vt 0.2784 0.0916
vt 0.2635 0.0037
vt 0.7772 0.7286
vt 0.4070 0.1484
vt 0.4761 0.0921
vt 0.5549 0.0504
vt 0.6402 0.0249
vt 0.7289 0.0166
vt 0.8176 0.0256
vt 0.9028 0.0519
vt 0.5804 0.6452
vt 0.5064 0.6947
vt 0.4240 0.7288
vt 0.3366 0.7462
vt 0.2475 0.7462
vt 0.1601 0.7288
vt 0.0778 0.6947
vt 0.9739 0.9319
vt 0.9284 0.9319
vt 0.9284 0.8428
vt 0.9739 0.8428
vt 0.9284 0.7537
vt 0.9739 0.7537
vt 0.9284 0.6646
vt 0.9739 0.6646
vt 0.9284 0.5755
vt 0.9739 0.5755
vt 0.9284 0.4864
vt 0.9739 0.4864
vt 0.9284 0.3973
vt 0.9739 0.3973
vt 0.9284 0.3082
vt 0.9739 0.3082
vt 0.9284 0.2190
vt 0.9739 0.2190
vn -0.0000 -1.0000 0.0000
vn 1.0000 -0.0000 0.0000
vn -0.7054 0.7054 -0.0695
vn -0.6995 0.6995 -0.1459
vn -0.6758 0.6758 -0.2944
vn -0.6324 0.6324 -0.4474
vn -0.5636 0.5636 -0.6038
vn -0.4621 0.4621 -0.7569
vn -0.3219 0.3219 -0.8904
vn -0.1457 0.1457 -0.9785
vn -0.0523 0.0523 -0.9973
vn 0.0523 -0.0523 0.9973
vn 0.1457 -0.1457 0.9785
vn 0.3219 -0.3219 0.8904
vn 0.4621 -0.4621 0.7569
vn 0.5636 -0.5636 0.6038
vn 0.6324 -0.6324 0.4474
vn 0.6758 -0.6758 0.2944
vn 0.6995 -0.6995 0.1459
vn 0.7054 -0.7054 0.0695
vn 0.0000 0.0000 -1.0000
vn -0.0000 0.0000 1.0000
vn -0.9952 0.0980 -0.0000
vn -0.9808 0.1951 -0.0000
vn -0.9239 0.3827 -0.0000
vn -0.8315 0.5556 -0.0000
vn -0.7071 0.7071 -0.0000
vn -0.5556 0.8315 -0.0000
vn -0.3827 0.9239 -0.0000
vn -0.1951 0.9808 0.0000
vn -0.0980 0.9952 0.0000
usemtl None
s 1
f 1/1/1 11/2/1 10/3/1 2/4/1
f 2/4/1 10/3/1 12/5/1 3/6/1
f 3/6/1 12/5/1 13/7/1 4/8/1
f 4/8/1 13/7/1 14/9/1 5/10/1
f 5/10/1 14/9/1 15/11/1 6/12/1
f 6/12/1 15/11/1 16/13/1 7/14/1
f 7/14/1 16/13/1 17/15/1 8/16/1
f 8/16/1 17/15/1 18/17/1 9/18/1
f 20/19/2 28/20/2 11/21/2 19/22/2
f 21/23/2 29/24/2 28/20/2 20/19/2
f 22/25/2 30/26/2 29/24/2 21/23/2
f 23/27/2 31/28/2 30/26/2 22/25/2
f 24/29/2 32/30/2 31/28/2 23/27/2
f 25/31/2 33/32/2 32/30/2 24/29/2
f 26/33/2 34/34/2 33/32/2 25/31/2
f 27/35/2 35/36/2 34/34/2 26/33/2
f 1/37/3 2/38/4 20/39/4 19/40/3
f 3/41/5 21/42/5 20/39/4 2/38/4
f 4/43/6 22/44/6 21/42/5 3/41/5
f 5/45/7 23/46/7 22/44/6 4/43/6
f 6/47/8 24/48/8 23/46/7 5/45/7
f 7/49/9 25/50/9 24/48/8 6/47/8
f 8/51/10 26/52/10 25/50/9 7/49/9
f 9/53/11 27/54/11 26/52/10 8/51/10
f 18/55/12 17/56/13 34/57/13 35/58/12
f 17/56/13 16/59/14 33/60/14 34/57/13
f 16/59/14 15/61/15 32/62/15 33/60/14
f 15/61/15 14/63/16 31/64/16 32/62/15
f 14/63/16 13/65/17 30/66/17 31/64/16
f 13/65/17 12/67/18 29/68/18 30/66/17
f 12/67/18 10/69/19 28/70/19 29/68/18
f 10/69/19 11/71/20 28/70/19
f 11/72/21 1/37/21 19/40/21
f 27/54/11 9/53/11 36/73/21 37/74/21 38/75/21 39/76/21 40/77/21 41/78/21 42/79/21
f 18/55/12 35/58/12 43/80/22 44/81/22 45/82/22 46/83/22 47/84/22 48/85/22 49/86/22
f 9/87/23 18/88/23 49/89/24 36/90/24
f 36/90/24 49/89/24 48/91/25 37/92/25
f 37/92/25 48/91/25 47/93/26 38/94/26
f 38/94/26 47/93/26 46/95/27 39/96/27
f 39/96/27 46/95/27 45/97/28 40/98/28
f 40/98/28 45/97/28 44/99/29 41/100/29
f 41/100/29 44/99/29 43/101/30 42/102/30
f 42/102/30 43/101/30 35/103/31 27/104/31
