# Blender v2.78 (sub 0) OBJ File: 'SM_1M_InsetCorner.blend'
# www.blender.org
mtllib SM_1M_Cross.mtl
o SM_1M_Cross_Cube.221
v -100.000000 55.000000 0.000000
v -100.000000 45.000000 0.000000
v -100.000000 45.000000 100.000000
v -100.000000 55.000000 100.000000
v 0.000000 55.000000 0.000000
v 0.000000 45.000000 0.000000
v 0.000000 45.000000 100.000000
v 0.000000 55.000000 100.000000
v -45.000000 0.000000 0.000000
v -55.000000 0.000000 0.000000
v -55.000000 0.000000 100.000000
v -45.000000 0.000000 100.000000
v -55.000000 100.000000 0.000000
v -45.000000 100.000000 0.000000
v -45.000000 100.000000 100.000000
v -55.000000 100.000000 100.000000
v -45.000000 55.000000 100.000000
v -55.000000 55.000000 100.000000
v -55.000000 45.000000 100.000000
v -45.000000 55.000000 0.000000
v -45.000000 45.000000 0.000000
v -55.000000 45.000000 0.000000
v -45.000000 45.000000 100.000000
v -55.000000 55.000000 0.000000
vt 0.7197 0.3602
vt 0.7197 0.5220
vt 0.3602 0.5220
vt 0.3602 0.3602
vt 0.8854 0.1400
vt 0.8600 0.1655
vt 0.8345 0.1400
vt 0.8600 0.1146
vt 0.8854 0.4201
vt 0.8600 0.4455
vt 0.8345 0.4201
vt 0.8600 0.3947
vt 0.9998 0.2544
vt 0.9744 0.2799
vt 0.9998 0.5345
vt 0.9744 0.5599
vt 0.7197 0.5579
vt 0.3602 0.5579
vt 0.0002 0.1620
vt 0.3598 0.1620
vt 0.3598 0.1980
vt 0.0002 0.1980
vt 0.7456 0.0002
vt 0.7201 0.0256
vt 0.7456 0.2803
vt 0.7201 0.3057
vt 0.7456 0.5599
vt 0.7201 0.5345
vt 0.7456 0.2799
vt 0.7201 0.2544
vt 0.9998 0.0256
vt 0.9744 0.0002
vt 0.9998 0.3057
vt 0.9744 0.2803
vt 0.3602 0.1620
vt 0.7197 0.1620
vt 0.7197 0.1980
vt 0.3602 0.1980
vt 0.0002 0.5220
vt 0.3598 0.5220
vt 0.3598 0.5579
vt 0.0002 0.5579
vt 0.3598 0.7197
vt 0.0002 0.7197
vt 0.3602 0.7197
vt 0.7197 0.7197
vt 0.3602 0.0002
vt 0.7197 0.0002
vt 0.3598 0.3602
vt 0.0002 0.3602
vt 0.3598 0.3598
vt 0.0002 0.3598
vt 0.3598 0.0002
vt 0.0002 0.0002
vt 0.7197 0.3598
vt 0.3602 0.3598
vn 0.0000 -1.0000 0.0000
vn 0.0000 0.0000 1.0000
vn 0.0000 0.0000 -1.0000
vn 1.0000 0.0000 0.0000
vn -1.0000 0.0000 0.0000
vn 0.0000 1.0000 0.0000
usemtl None
s off
f 21/1/1 6/2/1 7/3/1 23/4/1
f 23/5/2 17/6/2 18/7/2 19/8/2
f 20/9/3 21/10/3 22/11/3 24/12/3
f 23/5/2 7/13/2 8/14/2 17/6/2
f 20/9/3 5/15/3 6/16/3 21/10/3
f 7/3/4 6/2/4 5/17/4 8/18/4
f 4/19/5 1/20/5 2/21/5 3/22/5
f 3/23/2 19/8/2 18/7/2 4/24/2
f 1/25/3 24/12/3 22/11/3 2/26/3
f 21/10/3 9/27/3 10/28/3 22/11/3
f 17/6/2 15/29/2 16/30/2 18/7/2
f 12/31/2 23/5/2 19/8/2 11/32/2
f 14/33/3 20/9/3 24/12/3 13/34/3
f 15/35/6 14/36/6 13/37/6 16/38/6
f 11/39/1 10/40/1 9/41/1 12/42/1
f 9/41/4 21/43/4 23/44/4 12/42/4
f 17/45/6 8/18/6 5/17/6 20/46/6
f 15/35/4 17/47/4 20/48/4 14/36/4
f 22/49/5 10/40/5 11/39/5 19/50/5
f 2/21/1 22/51/1 19/52/1 3/22/1
f 24/53/6 1/20/6 4/19/6 18/54/6
f 13/37/5 24/55/5 18/56/5 16/38/5
