# Blender v2.78 (sub 0) OBJ File: 'SM_1M_InsetCorner.blend'
# www.blender.org
mtllib SM_1M_Triangle.mtl
o SM_1M_Triangle_Cube.216
v 0.000000 0.000000 0.000000
v 0.000000 0.000000 100.000000
v -100.000000 0.000000 0.000000
v -100.000000 0.000000 100.000000
v 0.000000 100.000000 0.000000
v 0.000000 100.000000 100.000000
vt 0.9948 0.7738
vt 0.7702 0.9985
vt 0.5455 0.7738
vt 0.7702 0.5492
vt 0.4525 0.2315
vt 0.2278 0.4561
vt 0.0032 0.2315
vt 0.2278 0.0069
vt 0.1137 0.9428
vt 0.1137 0.4935
vt 0.3383 0.7181
vt 0.8492 0.4674
vt 0.6246 0.2427
vt 0.8492 0.0181
vn 0.0000 -1.0000 0.0000
vn 1.0000 0.0000 0.0000
vn 0.0000 0.0000 -1.0000
vn 0.0000 0.0000 1.0000
vn -0.7071 0.7071 0.0000
usemtl None
s off
f 1/1/1 2/2/1 4/3/1 3/4/1
f 5/5/2 6/6/2 2/7/2 1/8/2
f 3/9/3 5/10/3 1/11/3
f 4/12/4 2/13/4 6/14/4
f 4/3/5 6/6/5 5/5/5 3/4/5
