# Blender v2.78 (sub 0) OBJ File: 'SM_1M_InsetCorner.blend'
# www.blender.org
mtllib SM_1M_StairsCoverless.mtl
o SM_1M_StairsCoverless_Cube.031
v 0.000000 0.000000 0.000000
v 0.000000 0.000000 10.000002
v -100.000000 0.000000 0.000000
v -100.000000 0.000000 10.000002
v 0.000000 10.000002 0.000000
v 0.000000 10.000002 10.000002
v -100.000000 10.000002 0.000000
v -100.000000 10.000002 10.000002
v 0.000000 10.000002 20.000004
v -100.000000 10.000002 20.000004
v 0.000000 20.000004 10.000002
v 0.000000 20.000004 20.000004
v -100.000000 20.000004 10.000002
v -100.000000 20.000004 20.000004
v 0.000000 20.000004 30.000008
v -100.000000 20.000004 30.000008
v 0.000000 30.000008 20.000004
v 0.000000 30.000008 30.000008
v -100.000000 30.000008 20.000004
v -100.000000 30.000008 30.000008
v 0.000000 30.000008 40.000008
v -100.000000 30.000008 40.000008
v 0.000000 40.000008 30.000008
v 0.000000 40.000008 40.000008
v -100.000000 40.000008 30.000008
v -100.000000 40.000008 40.000008
v 0.000000 40.000008 50.000011
v -100.000000 40.000008 50.000011
v 0.000000 50.000011 40.000008
v 0.000000 50.000011 50.000011
v -100.000000 50.000011 40.000008
v -100.000000 50.000011 50.000011
v 0.000000 50.000011 60.000008
v -100.000000 50.000011 60.000008
v 0.000000 60.000008 50.000011
v 0.000000 60.000008 60.000008
v -100.000000 60.000008 50.000011
v -100.000000 60.000008 60.000008
v 0.000000 60.000008 70.000008
v -100.000000 60.000008 70.000008
v 0.000000 70.000008 60.000008
v 0.000000 70.000008 70.000008
v -100.000000 70.000008 60.000008
v -100.000000 70.000008 70.000008
v 0.000000 70.000008 80.000008
v -100.000000 70.000008 80.000008
v 0.000000 80.000008 70.000008
v 0.000000 80.000008 80.000008
v -100.000000 80.000008 70.000008
v -100.000000 80.000008 80.000008
v 0.000000 80.000008 90.000008
v -100.000000 80.000008 90.000008
v 0.000000 90.000008 80.000008
v 0.000000 90.000008 90.000008
v -100.000000 90.000008 80.000008
v -100.000000 90.000008 90.000008
v 0.000000 90.000008 100.000015
v -100.000000 90.000008 100.000015
v 0.000000 100.000015 90.000008
v 0.000000 100.000015 100.000015
v -100.000000 100.000015 90.000008
v -100.000000 100.000015 100.000015
vt 0.4723 0.6658
vt 0.4723 0.6187
vt 0.9431 0.6187
vt 0.9431 0.6658
vt 0.9442 0.6187
vt 0.9442 0.5716
vt 0.9912 0.5716
vt 0.9912 0.6187
vt 0.9912 0.5235
vt 0.9912 0.5706
vt 0.9442 0.5706
vt 0.9442 0.5235
vt 0.9431 0.8572
vt 0.9431 0.9043
vt 0.4723 0.9043
vt 0.4723 0.8572
vt 0.9431 0.5716
vt 0.4723 0.5716
vt 0.0005 0.9514
vt 0.0005 0.9043
vt 0.4713 0.9043
vt 0.4713 0.9514
vt 0.9442 0.5225
vt 0.9442 0.4754
vt 0.9912 0.4754
vt 0.9912 0.5225
vt 0.9912 0.8593
vt 0.9912 0.9064
vt 0.9442 0.9064
vt 0.9442 0.8593
vt 0.4713 0.8572
vt 0.0005 0.8572
vt 0.4723 0.8562
vt 0.4723 0.8091
vt 0.9431 0.8091
vt 0.9431 0.8562
vt 0.9442 0.7139
vt 0.9442 0.6668
vt 0.9912 0.6668
vt 0.9912 0.7139
vt 0.9912 0.7149
vt 0.9912 0.7620
vt 0.9442 0.7620
vt 0.9442 0.7149
vt 0.9431 0.7620
vt 0.4723 0.7620
vt 0.4723 0.5706
vt 0.4723 0.5235
vt 0.9431 0.5235
vt 0.9431 0.5706
vt 0.9442 0.8582
vt 0.9442 0.8112
vt 0.9912 0.8112
vt 0.9912 0.8582
vt 0.9912 0.3813
vt 0.9912 0.4284
vt 0.9442 0.4284
vt 0.9442 0.3813
vt 0.9431 0.4765
vt 0.4723 0.4765
vt 0.4723 0.7610
vt 0.4723 0.7139
vt 0.9431 0.7139
vt 0.9431 0.7610
vt 0.9442 0.3342
vt 0.9442 0.2871
vt 0.9912 0.2871
vt 0.9912 0.3342
vt 0.9912 0.7631
vt 0.9912 0.8101
vt 0.9442 0.8101
vt 0.9442 0.7631
vt 0.9431 0.6668
vt 0.4723 0.6668
vt 0.0005 0.8562
vt 0.0005 0.8091
vt 0.4713 0.8091
vt 0.4713 0.8562
vt 0.0486 0.9995
vt 0.0486 0.9524
vt 0.0957 0.9524
vt 0.0957 0.9995
vt 0.1438 0.9524
vt 0.1438 0.9995
vt 0.0967 0.9995
vt 0.0967 0.9524
vt 0.4713 0.7620
vt 0.0005 0.7620
vt 0.4723 0.0947
vt 0.4723 0.0476
vt 0.9431 0.0476
vt 0.9431 0.0947
vt 0.1930 0.9995
vt 0.1930 0.9524
vt 0.2400 0.9524
vt 0.2400 0.9995
vt 0.1919 0.9524
vt 0.1919 0.9995
vt 0.1448 0.9995
vt 0.1448 0.9524
vt 0.9431 0.0005
vt 0.4723 0.0005
vt 0.4723 0.4754
vt 0.4723 0.4284
vt 0.9431 0.4284
vt 0.9431 0.4754
vt 0.9442 0.2861
vt 0.9442 0.2390
vt 0.9912 0.2390
vt 0.9912 0.2861
vt 0.9912 0.9074
vt 0.9912 0.9545
vt 0.9442 0.9545
vt 0.9442 0.9074
vt 0.9431 0.3813
vt 0.4723 0.3813
vt 0.4723 0.2851
vt 0.4723 0.2380
vt 0.9431 0.2380
vt 0.9431 0.2851
vt 0.9442 0.2380
vt 0.9442 0.1909
vt 0.9912 0.1909
vt 0.9912 0.2380
vt 0.0476 0.9524
vt 0.0476 0.9995
vt 0.0005 0.9995
vt 0.0005 0.9524
vt 0.9431 0.1909
vt 0.4723 0.1909
vt 0.4723 0.1899
vt 0.4723 0.1428
vt 0.9431 0.1428
vt 0.9431 0.1899
vt 0.9442 0.0476
vt 0.9442 0.0005
vt 0.9912 0.0005
vt 0.9912 0.0476
vt 0.9431 0.3332
vt 0.9431 0.3802
vt 0.4723 0.3802
vt 0.4723 0.3332
vt 0.9912 0.0957
vt 0.9912 0.1428
vt 0.9442 0.1428
vt 0.9442 0.0957
vt 0.9431 0.0957
vt 0.4723 0.0957
vt 0.4723 0.9514
vt 0.9431 0.9514
vt 0.0005 0.7139
vt 0.0005 0.6668
vt 0.4713 0.6668
vt 0.4713 0.7139
vt 0.0005 0.7610
vt 0.4713 0.7610
vt 0.0005 0.4284
vt 0.0005 0.3813
vt 0.4713 0.3813
vt 0.4713 0.4284
vt 0.0005 0.4754
vt 0.4713 0.4754
vt 0.0005 0.6187
vt 0.0005 0.5716
vt 0.4713 0.5716
vt 0.4713 0.6187
vt 0.0005 0.6658
vt 0.4713 0.6658
vt 0.0005 0.5235
vt 0.0005 0.4765
vt 0.4713 0.4765
vt 0.4713 0.5235
vt 0.0005 0.5706
vt 0.4713 0.5706
vt 0.0005 0.3332
vt 0.0005 0.2861
vt 0.4713 0.2861
vt 0.4713 0.3332
vt 0.0005 0.3802
vt 0.4713 0.3802
vt 0.0005 0.1428
vt 0.0005 0.0957
vt 0.4713 0.0957
vt 0.4713 0.1428
vt 0.0005 0.1899
vt 0.4713 0.1899
vt 0.0005 0.2380
vt 0.0005 0.1909
vt 0.4713 0.1909
vt 0.4713 0.2380
vt 0.0005 0.2851
vt 0.4713 0.2851
vt 0.0005 0.0476
vt 0.0005 0.0005
vt 0.4713 0.0005
vt 0.4713 0.0476
vt 0.0005 0.0947
vt 0.4713 0.0947
vt 0.4723 0.2861
vt 0.9431 0.2861
vn 0.0000 -1.0000 0.0000
vn -1.0000 0.0000 0.0000
vn 1.0000 0.0000 0.0000
vn 0.0000 0.0000 -1.0000
vn 0.0000 0.0000 1.0000
vn 0.0000 1.0000 0.0000
usemtl None
s off
f 1/1/1 2/2/1 4/3/1 3/4/1
f 3/5/2 4/6/2 8/7/2 7/8/2
f 5/9/3 6/10/3 2/11/3 1/12/3
f 3/13/4 7/14/4 5/15/4 1/16/4
f 8/17/5 4/3/5 2/2/5 6/18/5
f 6/19/1 9/20/1 10/21/1 8/22/1
f 8/23/2 10/24/2 14/25/2 13/26/2
f 11/27/3 12/28/3 9/29/3 6/30/3
f 14/31/5 10/21/5 9/20/5 12/32/5
f 12/33/1 15/34/1 16/35/1 14/36/1
f 14/37/2 16/38/2 20/39/2 19/40/2
f 17/41/3 18/42/3 15/43/3 12/44/3
f 20/45/5 16/35/5 15/34/5 18/46/5
f 18/47/1 21/48/1 22/49/1 20/50/1
f 20/51/2 22/52/2 26/53/2 25/54/2
f 23/55/3 24/56/3 21/57/3 18/58/3
f 26/59/5 22/49/5 21/48/5 24/60/5
f 24/61/1 27/62/1 28/63/1 26/64/1
f 26/65/2 28/66/2 32/67/2 31/68/2
f 29/69/3 30/70/3 27/71/3 24/72/3
f 32/73/5 28/63/5 27/62/5 30/74/5
f 30/75/1 33/76/1 34/77/1 32/78/1
f 32/79/2 34/80/2 38/81/2 37/82/2
f 35/83/3 36/84/3 33/85/3 30/86/3
f 38/87/5 34/77/5 33/76/5 36/88/5
f 36/89/1 39/90/1 40/91/1 38/92/1
f 38/93/2 40/94/2 44/95/2 43/96/2
f 41/97/3 42/98/3 39/99/3 36/100/3
f 44/101/5 40/91/5 39/90/5 42/102/5
f 42/103/1 45/104/1 46/105/1 44/106/1
f 44/107/2 46/108/2 50/109/2 49/110/2
f 47/111/3 48/112/3 45/113/3 42/114/3
f 50/115/5 46/105/5 45/104/5 48/116/5
f 48/117/1 51/118/1 52/119/1 50/120/1
f 50/121/2 52/122/2 56/123/2 55/124/2
f 53/125/3 54/126/3 51/127/3 48/128/3
f 56/129/5 52/119/5 51/118/5 54/130/5
f 54/131/1 57/132/1 58/133/1 56/134/1
f 56/135/2 58/136/2 62/137/2 61/138/2
f 61/139/6 62/140/6 60/141/6 59/142/6
f 59/143/3 60/144/3 57/145/3 54/146/3
f 62/147/5 58/133/5 57/132/5 60/148/5
f 6/149/6 5/15/6 7/14/6 8/150/6
f 11/151/4 6/152/4 8/153/4 13/154/4
f 12/155/6 11/151/6 13/154/6 14/156/6
f 17/157/4 12/158/4 14/159/4 19/160/4
f 18/161/6 17/157/6 19/160/6 20/162/6
f 23/163/4 18/164/4 20/165/4 25/166/4
f 24/167/6 23/163/6 25/166/6 26/168/6
f 29/169/4 24/170/4 26/171/4 31/172/4
f 30/173/6 29/169/6 31/172/6 32/174/6
f 35/175/4 30/176/4 32/177/4 37/178/4
f 36/179/6 35/175/6 37/178/6 38/180/6
f 41/181/4 36/182/4 38/183/4 43/184/4
f 42/185/6 41/181/6 43/184/6 44/186/6
f 47/187/4 42/188/4 44/189/4 49/190/4
f 48/191/6 47/187/6 49/190/6 50/192/6
f 53/193/4 48/194/4 50/195/4 55/196/4
f 54/197/6 53/193/6 55/196/6 56/198/6
f 59/142/4 54/199/4 56/200/4 61/139/4
