# Blender v2.78 (sub 0) OBJ File: 'SM_1M_InsetCorner.blend'
# www.blender.org
mtllib SM_1M_ConeCorner.mtl
o SM_1M_ConeCorner_Cone
v -100.000000 0.000000 0.000000
v -98.078529 19.509033 0.000000
v -92.387955 38.268345 0.000000
v -83.146957 55.557022 0.000000
v -70.710678 70.710678 0.000000
v -55.557018 83.146965 0.000000
v -38.268341 92.387955 0.000000
v -19.509037 98.078529 0.000000
v -0.000008 100.000000 0.000000
v 0.000000 0.000000 100.000000
v -0.000008 0.000000 0.000000
vt 0.4232 0.9187
vt 0.8282 0.9992
vt 0.4153 0.9992
vt 0.4467 0.8412
vt 0.4848 0.7698
vt 0.5362 0.7072
vt 0.5988 0.6559
vt 0.6702 0.6177
vt 0.7476 0.5942
vt 0.8282 0.5863
vt 0.9383 0.0008
vt 0.9383 0.5847
vt 0.8575 0.0064
vt 0.7783 0.0231
vt 0.7022 0.0506
vt 0.6306 0.0884
vt 0.5649 0.1357
vt 0.5064 0.1917
vt 0.4562 0.2552
vt 0.4153 0.3250
vt 0.0008 0.4137
vt 0.4137 0.0008
vt 0.4137 0.4137
vt 0.4137 0.8266
vn 0.0000 0.0000 -1.0000
vn -0.7054 0.0695 0.7054
vn -0.4748 0.4748 0.7410
vn -0.6935 0.1379 0.7071
vn -0.6533 0.2706 0.7071
vn -0.5879 0.3928 0.7071
vn -0.5000 0.5000 0.7071
vn -0.3928 0.5879 0.7071
vn -0.2706 0.6533 0.7071
vn -0.1379 0.6935 0.7071
vn -0.0695 0.7054 0.7054
vn 0.0000 -1.0000 0.0000
vn 1.0000 0.0000 -0.0000
usemtl None
s off
f 2/1/1 11/2/1 1/3/1
f 3/4/1 11/2/1 2/1/1
f 4/5/1 11/2/1 3/4/1
f 5/6/1 11/2/1 4/5/1
f 6/7/1 11/2/1 5/6/1
f 7/8/1 11/2/1 6/7/1
f 8/9/1 11/2/1 7/8/1
f 9/10/1 11/2/1 8/9/1
s 1
f 1/11/2 10/12/3 2/13/4
f 2/13/4 10/12/3 3/14/5
f 3/14/5 10/12/3 4/15/6
f 4/15/6 10/12/3 5/16/7
f 5/16/7 10/12/3 6/17/8
f 6/17/8 10/12/3 7/18/9
f 7/18/9 10/12/3 8/19/10
f 8/19/10 10/12/3 9/20/11
f 10/21/12 1/22/12 11/23/12
f 9/24/13 10/21/13 11/23/13
