# Blender v2.78 (sub 0) OBJ File: 'SM_1M_InsetCorner.blend'
# www.blender.org
mtllib SM_1M_InsetCubeCornerThin.mtl
o SM_1M_InsetCubeCornerThin_Cube.009
v -100.000000 0.000000 0.000000
v -100.000000 0.000000 100.000000
v 0.000000 100.000000 0.000000
v 0.000000 100.000000 100.000000
v -100.000000 100.000000 100.000000
v -100.000000 100.000000 0.000000
v -100.000000 0.000000 0.000000
v -100.000000 0.000000 100.000000
v 0.000000 100.000000 0.000000
v 0.000000 100.000000 100.000000
v -100.000000 100.000000 100.000000
v -100.000000 100.000000 0.000000
vt 0.5001 0.4999
vt 0.5001 0.0001
vt 0.9999 0.0001
vt 0.9999 0.4999
vt 0.5001 0.9996
vt 0.9999 0.9996
vt 0.4999 0.4999
vt 0.0001 0.4999
vt 0.0001 0.0001
vt 0.4999 0.0001
vt 0.4999 0.9996
vt 0.0001 0.9996
vn 1.0000 0.0000 0.0000
vn 0.0000 -1.0000 0.0000
vn -1.0000 0.0000 0.0000
vn 0.0000 1.0000 0.0000
usemtl None
s off
f 5/1/1 2/2/1 1/3/1 6/4/1
f 4/5/2 5/1/2 6/4/2 3/6/2
f 11/7/3 12/8/3 7/9/3 8/10/3
f 10/11/4 9/12/4 12/8/4 11/7/4
