# Blender v2.78 (sub 0) OBJ File: 'SM_1M_InsetCorner.blend'
# www.blender.org
mtllib SM_1M_CornerRightAngle.mtl
o SM_1M_CornerRightAngle_Cube.219
v -100.000015 0.000049 90.000038
v -82.441887 0.000046 88.270706
v -65.558502 0.000043 83.149193
v -49.998695 0.000041 74.832298
v -36.360401 0.000032 63.639645
v -25.167738 0.000030 50.001354
v -16.850855 0.000022 34.441536
v -11.729332 0.000014 17.558163
v -80.490990 0.000052 98.078560
v -100.000015 0.000055 100.000023
v -61.731670 0.000043 92.387985
v -44.442989 0.000040 83.146988
v -29.289339 0.000037 70.710716
v -16.853046 0.000029 55.557053
v -7.612062 0.000021 38.268368
v -1.921483 0.000019 19.509068
v 0.000007 100.000008 90.000000
v -99.999969 100.000023 90.000008
v 0.000004 82.441879 88.270683
v 0.000001 65.558487 83.149162
v -0.000002 49.998680 74.832275
v -0.000005 36.360394 63.639618
v -0.000008 25.167730 50.001324
v -0.000010 16.850843 34.441513
v -0.000012 11.729325 17.558136
v -0.000014 9.999996 0.000004
v 0.000025 100.000008 99.999992
v 0.000022 80.490974 98.078529
v -99.999969 100.000023 100.000000
v 0.000019 61.731659 92.387955
v 0.000016 44.442978 83.146965
v 0.000013 29.289328 70.710686
v 0.000010 16.853037 55.557026
v 0.000007 7.612051 38.268345
v 0.000005 1.921476 19.509039
v 0.000003 0.000000 0.000012
v -10.000100 10.000093 0.000003
v -1.921482 1.921476 19.509068
v -7.612062 7.612052 38.268368
v -16.853043 16.853045 55.557049
v -29.289337 29.289331 70.710709
v -44.442989 44.442993 83.146980
v -61.731670 61.731670 92.387970
v -80.490974 80.490990 98.078529
v -10.000006 0.000013 0.000031
v -82.441864 82.441887 88.274818
v -65.558487 65.558479 83.153061
v -49.998676 49.998672 74.835777
v -36.360394 36.360382 63.642609
v -25.167734 25.167721 50.003666
v -16.850849 16.850832 34.443127
v -11.729335 11.729313 17.558960
vt 1.0246 0.4938
vt 0.6195 0.4938
vt 0.6188 0.4142
vt 0.9483 0.4108
vt 1.0588 0.3125
vt 1.0588 -0.0974
vt 1.0998 -0.0974
vt 1.0998 0.3125
vt 0.5004 1.0450
vt 0.5463 0.9891
vt 0.5804 1.0119
vt 0.5294 1.0740
vt 0.5804 0.9253
vt 0.6182 0.9410
vt 0.6014 0.8561
vt 0.6416 0.8641
vt 0.6084 0.7841
vt 0.6494 0.7841
vt 0.6014 0.7121
vt 0.6416 0.7041
vt 0.5804 0.6429
vt 0.6182 0.6272
vt 0.5463 0.5791
vt 0.5804 0.5564
vt 0.5004 0.5232
vt 0.5294 0.4942
vt 1.0584 0.0918
vt 0.9802 0.0845
vt 0.8719 0.3273
vt 0.9030 0.0759
vt 0.7970 0.2451
vt 0.8273 0.0650
vt 0.7258 0.1661
vt 0.7541 0.0504
vt 0.6608 0.0930
vt 0.6842 0.0301
vt 0.6033 0.0261
vt 0.6181 0.0001
vt 0.5515 -0.0382
vt 0.5563 -0.0443
vt 0.5004 -0.0974
vt -0.0149 0.7313
vt -0.0708 0.7772
vt -0.0998 0.7482
vt -0.0377 0.6972
vt 0.0489 0.6972
vt 0.0332 0.6593
vt 0.1181 0.6762
vt 0.1101 0.6360
vt 0.1901 0.6691
vt 0.1901 0.6281
vt 0.2620 0.6762
vt 0.2700 0.6360
vt 0.3313 0.6972
vt 0.3469 0.6593
vt 0.3950 0.7313
vt 0.4178 0.6972
vt 0.4510 0.7772
vt 0.4799 0.7482
vt 1.0998 0.7224
vt 1.0588 0.7224
vt 0.5748 0.0359
vt 0.5449 -0.0345
vt 0.6065 0.1813
vt 0.5947 0.1076
vt 0.6134 0.2574
vt 0.6170 0.3352
vt 0.6908 0.4942
vt 0.6908 0.5352
vt 0.6498 0.5352
vt 0.6499 0.4942
vt 0.4475 0.0779
vt 0.1129 0.0888
vt 0.0438 0.0146
vt 0.4455 0.0076
vt 0.4508 0.1472
vt 0.1826 0.1633
vt 0.4563 0.2152
vt 0.2518 0.2367
vt 0.4653 0.2810
vt 0.3191 0.3070
vt 0.4794 0.3436
vt 0.3827 0.3723
vt 0.5010 0.4026
vt 0.4412 0.4306
vt 0.5330 0.4570
vt 0.4958 0.4830
vt 0.5762 0.5073
vt 0.5466 0.5309
vt 0.5244 0.5607
vt 0.4718 0.5215
vt 0.4146 0.4918
vt 0.3530 0.4704
vt 0.2879 0.4546
vt 0.2199 0.4427
vt 0.1500 0.4332
vt 0.0790 0.4252
vt 0.0071 0.4180
vn 0.0980 0.0000 0.9952
vn 0.1951 0.0000 0.9808
vn 0.1477 0.0000 0.9890
vn 0.0000 1.0000 0.0000
vn -0.0000 -1.0000 0.0000
vn -0.0000 -0.0980 0.9952
vn -0.0000 -0.1477 0.9890
vn -0.0000 -0.1951 0.9808
vn -0.0000 -0.3398 0.9405
vn 0.0000 -0.3827 0.9239
vn 0.0000 -0.5198 0.8543
vn 0.0000 -0.5556 0.8315
vn 0.0000 -0.6803 0.7329
vn 0.0000 -0.7071 0.7071
vn 0.0000 -0.8142 0.5805
vn 0.0000 -0.8315 0.5556
vn 0.0000 -0.9154 0.4025
vn 0.0000 -0.9239 0.3827
vn 0.0000 -0.9785 0.2061
vn 0.0000 -0.9808 0.1951
vn 0.0000 -0.9952 0.0980
vn 1.0000 0.0000 -0.0000
vn -1.0000 0.0000 -0.0000
vn 0.9785 -0.0000 0.2061
vn 0.9154 -0.0000 0.4025
vn 0.9239 -0.0000 0.3827
vn 0.9808 -0.0000 0.1951
vn 0.9952 -0.0000 0.0980
vn 0.8142 0.0000 0.5805
vn 0.6803 0.0000 0.7329
vn 0.7071 0.0000 0.7071
vn 0.8315 0.0000 0.5556
vn 0.5198 0.0000 0.8543
vn 0.5556 0.0000 0.8315
vn 0.3398 0.0000 0.9405
vn 0.3827 0.0000 0.9239
vn -0.0000 -0.0000 -1.0000
vn -0.0000 0.1950 -0.9808
vn -0.0000 0.1476 -0.9891
vn -0.0000 0.0979 -0.9952
vn -0.0001 0.3827 -0.9239
vn -0.0001 0.3398 -0.9405
vn -0.0001 0.5556 -0.8315
vn -0.0001 0.5198 -0.8543
vn -0.0001 0.7071 -0.7071
vn -0.0001 0.6803 -0.7329
vn -0.0001 0.8315 -0.5556
vn -0.0001 0.8142 -0.5805
vn -0.0000 0.9239 -0.3827
vn -0.0000 0.9154 -0.4025
vn -0.0000 0.9808 -0.1951
vn -0.0000 0.9785 -0.2061
vn 0.0000 0.9952 -0.0980
vn -0.9785 0.0000 -0.2061
vn -0.9952 -0.0000 -0.0980
vn -0.9808 0.0000 -0.1951
vn -0.9154 0.0000 -0.4025
vn -0.9239 0.0000 -0.3827
vn -0.8142 0.0001 -0.5805
vn -0.8315 0.0000 -0.5556
vn -0.6803 0.0001 -0.7329
vn -0.7071 0.0001 -0.7071
vn -0.5198 0.0001 -0.8543
vn -0.5556 0.0001 -0.8315
vn -0.3398 0.0001 -0.9405
vn -0.3827 0.0001 -0.9239
vn -0.1476 0.0000 -0.9891
vn -0.1950 0.0000 -0.9808
vn -0.0979 0.0000 -0.9952
usemtl None
s 1
f 29/1/1 10/2/1 9/3/2 44/4/3
f 29/5/4 27/6/4 17/7/4 18/8/4
f 1/9/5 2/10/5 9/11/5 10/12/5
f 2/10/5 3/13/5 11/14/5 9/11/5
f 3/13/5 4/15/5 12/16/5 11/14/5
f 4/15/5 5/17/5 13/18/5 12/16/5
f 5/17/5 6/19/5 14/20/5 13/18/5
f 6/19/5 7/21/5 15/22/5 14/20/5
f 7/21/5 8/23/5 16/24/5 15/22/5
f 8/23/5 45/25/5 36/26/5 16/24/5
f 27/27/6 29/1/6 44/4/7 28/28/8
f 28/28/8 44/4/7 43/29/9 30/30/10
f 30/30/10 43/29/9 42/31/11 31/32/12
f 31/32/12 42/31/11 41/33/13 32/34/14
f 32/34/14 41/33/13 40/35/15 33/36/16
f 33/36/16 40/35/15 39/37/17 34/38/18
f 34/38/18 39/37/17 38/39/19 35/40/20
f 35/40/20 38/39/19 36/41/21
f 19/42/22 17/43/22 27/44/22 28/45/22
f 20/46/22 19/42/22 28/45/22 30/47/22
f 21/48/22 20/46/22 30/47/22 31/49/22
f 22/50/22 21/48/22 31/49/22 32/51/22
f 23/52/22 22/50/22 32/51/22 33/53/22
f 24/54/22 23/52/22 33/53/22 34/55/22
f 25/56/22 24/54/22 34/55/22 35/57/22
f 26/58/22 25/56/22 35/57/22 36/59/22
f 1/60/23 10/61/23 29/5/23 18/8/23
f 38/39/24 39/37/25 15/62/26 16/63/27
f 36/41/28 38/39/24 16/63/27
f 40/35/29 41/33/30 13/64/31 14/65/32
f 41/33/30 42/31/33 12/66/34 13/64/31
f 42/31/33 43/29/35 11/67/36 12/66/34
f 44/4/3 9/3/2 11/67/36 43/29/35
f 39/37/25 40/35/29 14/65/32 15/62/26
f 36/68/37 45/69/37 37/70/37 26/71/37
f 19/72/38 46/73/39 18/74/40 17/75/40
f 20/76/41 47/77/42 46/73/39 19/72/38
f 21/78/43 48/79/44 47/77/42 20/76/41
f 22/80/45 49/81/46 48/79/44 21/78/43
f 23/82/47 50/83/48 49/81/46 22/80/45
f 24/84/49 51/85/50 50/83/48 23/82/47
f 25/86/51 52/87/52 51/85/50 24/84/49
f 26/88/53 37/89/53 52/87/52 25/86/51
f 52/87/54 37/89/55 45/90/55 8/91/56
f 51/85/57 52/87/54 8/91/56 7/92/58
f 50/83/59 51/85/57 7/92/58 6/93/60
f 49/81/61 50/83/59 6/93/60 5/94/62
f 48/79/63 49/81/61 5/94/62 4/95/64
f 47/77/65 48/79/63 4/95/64 3/96/66
f 46/73/67 47/77/65 3/96/66 2/97/68
f 18/74/69 46/73/67 2/97/68 1/98/69
